<?xml version="1.0" ?><svg id="Layer_1_1_" style="enable-background:new 0 0 64 64;" version="1.1" viewBox="0 0 64 64" xml:space="preserve" xmlns="http://www.w3.org/2000/svg" xmlns:xlink="http://www.w3.org/1999/xlink"><circle cx="32" cy="46" r="5"/><path d="M41,55c0-2.209-1.612-4-3.6-4H32h-5.4c-1.988,0-3.6,1.791-3.6,4v7h18V55z"/><path d="M32.93,26.032C39.698,26.511,45,32.206,45,39h2c0-7.839-6.119-14.411-13.93-14.962L32.93,26.032z"/><path d="M17.346,35.786C17.116,36.834,17,37.916,17,39h2c0-0.94,0.101-1.878,0.3-2.786L17.346,35.786z"/><path d="M52.504,26.521C54.791,30.276,56,34.592,56,39h2c0-4.775-1.31-9.45-3.788-13.521L52.504,26.521z"/><path d="M6,39h2c0-13.233,10.767-24,24-24c1.953,0,3.891,0.234,5.76,0.695l0.479-1.941C36.214,13.254,34.115,13,32,13  C17.664,13,6,24.663,6,39z"/><path d="M32,3c-3.874,0-7.681,0.611-11.315,1.816l0.63,1.898C24.745,5.577,28.34,5,32,5c11.854,0,23.022,6.313,29.144,16.476  l1.713-1.031C56.375,9.685,44.552,3,32,3z"/><path d="M5.771,17.358l-1.542-1.273c-1.132,1.371-2.17,2.838-3.085,4.359l1.714,1.031C3.722,20.038,4.702,18.653,5.771,17.358z"/><path d="M49,54h10c0.552,0,1-0.448,1-1V43c0-0.552-0.448-1-1-1H49c-0.552,0-1,0.448-1,1v3l-6,4h6v3C48,53.552,48.448,54,49,54z"/><path d="M14,42H4c-0.552,0-1,0.448-1,1v10c0,0.552,0.448,1,1,1h10c0.552,0,1-0.448,1-1v-3h6l-6-4v-3C15,42.448,14.552,42,14,42z"/><path d="M47,11c-4.418,0-8,3.582-8,8s3.582,8,8,8s8-3.582,8-8S51.418,11,47,11z M47,26c-1.955,0-3.72-0.803-4.99-2.095  C42.061,21.741,43.823,20,46,20h1c-1.657,0-3-1.343-3-3s1.343-3,3-3s3,1.343,3,3s-1.343,3-3,3h1c2.177,0,3.939,1.741,3.99,3.905  C50.72,25.197,48.955,26,47,26z"/><path d="M32,28c0-4.418-3.582-8-8-8s-8,3.582-8,8s3.582,8,8,8S32,32.418,32,28z M23,29h1c-1.657,0-3-1.343-3-3s1.343-3,3-3  s3,1.343,3,3s-1.343,3-3,3h1c2.177,0,3.939,1.741,3.99,3.905C27.72,34.197,25.955,35,24,35c-1.955,0-3.72-0.803-4.99-2.095  C19.061,30.741,20.823,29,23,29z"/><path d="M12,2c-4.418,0-8,3.582-8,8s3.582,8,8,8s8-3.582,8-8S16.418,2,12,2z M12,17c-1.955,0-3.72-0.803-4.99-2.095  C7.061,12.741,8.823,11,11,11h1c-1.657,0-3-1.343-3-3s1.343-3,3-3s3,1.343,3,3s-1.343,3-3,3h1c2.177,0,3.939,1.741,3.99,3.905  C15.72,16.197,13.955,17,12,17z"/></svg>