<?xml version="1.0" ?><svg viewBox="0 0 512 512" xmlns="http://www.w3.org/2000/svg"><g id="a"/><g id="b"/><g id="c"><g><path d="M408,328c-44.18262,0-80,35.81714-80,80s35.81738,80,80,80,80-35.81726,80-80-35.81738-80-80-80Zm-53.3335,80c0-29.45532,23.87842-53.33337,53.3335-53.33337,10.17188,0,19.67822,2.84753,27.76611,7.78894l-73.31055,73.31067c-4.94141-8.08801-7.78906-17.5946-7.78906-27.76624Zm53.3335,53.33325c-10.17188,0-19.67822-2.84741-27.76611-7.78882l73.31055-73.31055c4.94141,8.08789,7.78906,17.59436,7.78906,27.76611,0,29.45508-23.87842,53.33325-53.3335,53.33325Z"/><rect height="17.88854" transform="translate(-76.32816 284.49845) rotate(-63.43495)" width="8.00006" x="187.99997" y="195.05573"/><path d="M490.82812,93.17139c-13.81445-13.81445-32.17285-21.83545-51.69531-22.58496-19.13281-.73401-37.65088,5.58679-52.34082,17.78973-6.1377-4.56573-12.78906-8.4599-19.85449-11.53192-20.74707-9.02051-44.21484-10.77832-66.07031-4.94824-28.08789,7.49023-46.5498,34.89014-42.94434,63.73438l2.1084,16.86572,.01367-.00165c.00635,.0545,.00098,.10889,.00977,.16327l8,48c.32129,1.92871,1.99023,3.34229,3.94531,3.34229h20v12c0,2.20898,1.79102,4,4,4h17.75781c2.3252,0,4.41602,1.29199,5.45605,3.37256,.80371,1.60596,.86719,3.40381,.17969,5.0625-.68652,1.65869-2.00293,2.88525-3.70703,3.45264l-12.95117,4.31738c-1.18262,.39453-2.11426,1.31738-2.51855,2.49658-.40527,1.1792-.23633,2.47998,.45508,3.51709l8.16504,12.24756c5.3584,8.03613,15.70312,11.05127,24.48242,7.30469l6.33496,25.33984-15.82031,20.85791c-2.74365,3.6167-5.22021,7.39539-7.43555,11.30151l.0498-.42163-90.60156-10.65918-18.33203-18.33154c-3.77734-3.77734-8.7998-5.85791-14.1416-5.85791h-20.25586c-6.44849,0-12.31299,3.12036-16.00244,8.03394l5.55615-22.22632,13.22949,6.61475c9.86523,4.93262,21.90137,.91895,26.83203-8.94434l.84473-1.68896c.77051-1.53955,.46875-3.3999-.74902-4.61719l-6.81152-6.8125c-3.98047-3.98047-4.60352-10.26855-1.48047-14.95264,3.62598-5.43701,10.99707-6.91064,16.43359-3.28662l10.81152,7.20801c1.12891,.75342,2.56348,.88184,3.80859,.34229,1.24609-.53955,2.13281-1.67383,2.35547-3.0127l8-47.99658c.00879-.05469,.0166-.10986,.02344-.16504l4.65137-37.21191c2.19238-17.53125-7.61914-34.63574-23.85742-41.59521-18.80762-8.05914-39.11523-10.64844-59.17871-7.62976l4.44336-6.0592h45.97266c2.20898,0,4-1.79102,4-4v-8c0-11.02783-8.97168-20-20-20h-7.67773l11.78125-14.72656c4.19141-5.23877,5.47656-12.18262,3.43652-18.57373-2.03906-6.3916-7.1084-11.30762-13.55957-13.15088l-19.33105-5.52344c-9.6582-2.7583-19.92188,2.12207-23.87793,11.35205l-18.24512,42.57324L22.40625,201.24854c-6.83691,8.79053-9.20996,20.02881-6.50879,30.8335l12.22168,48.88818,.00781-.00195c.04785,.19189,.10278,.38306,.18066,.57031l39.32129,94.37012L12.375,494.30859l7.25,3.38281,56-120c.47559-1.01904,.5-2.19141,.06738-3.22998l-38.7334-92.95996,42.20801-28.13916,29.26367,36.5791,15.77441,47.32373,7.58984-2.53027-13.82031-41.46069,31.88696,6.37732,45.3728,52.93494-19.47339,38.94543-13.97388-3.22473-39.28809-31.43066c-.94336-.75537-2.17578-1.04297-3.35742-.7832-1.17969,.25879-2.17871,1.0376-2.71973,2.11768l-3.84766,7.6958c-3.20117,6.40283-2.72266,14.08105,1.24805,20.0376l6.7041,10.05566h-21.00977c-6.01562,0-11.65234,2.66797-15.46582,7.31982-3.81445,4.65186-5.3252,10.70312-4.14551,16.60254l1.59961,7.99951c1.86328,9.31641,10.11133,16.07812,19.6123,16.07812h28.25586c5.3418,0,10.36426-2.08057,14.1416-5.85791l9.52344-9.52393,9.34595,3.33789-6.3645,63.646,7.96094,.7959,6.16699-61.66931,92.50684,33.03845c.4375,.15625,.89258,.23291,1.3457,.23291,.75781,0,1.50977-.21533,2.16309-.63525l49.87988-32.06567v62.47534h8v-67.61816l2.04834-1.31689-4.43994-6.65625-58.15918,37.38818-110.14648-39.33838c-1.45898-.521-3.08203-.1543-4.17383,.93848l-11.31348,11.31348c-2.2666,2.2666-5.28027,3.51514-8.48535,3.51514h-28.25586c-5.70117,0-10.64941-4.05713-11.76758-9.64697l-1.60059-7.99951c-.70703-3.53955,.19922-7.17041,2.48828-9.96191,2.28809-2.79102,5.66992-4.3916,9.2793-4.3916h28.4834c1.47559,0,2.83105-.81201,3.52637-2.11279,.69629-1.30029,.62012-2.87842-.19824-4.10596l-10.84961-16.27441c-2.38184-3.57422-2.66895-8.18115-.74805-12.02246l1.63477-3.27002,36.13574,28.90918c.46875,.37451,1.01562,.63916,1.59961,.77393l104,24c1.27051,.29346,2.60547-.05176,3.5752-.92432l57.18262-51.46387c1.74316-1.56836,3.69141-2.84619,5.79102-3.79736l-3.30078-7.28711c-2.84863,1.29053-5.4873,3.01904-7.8418,5.1377l-7.31201,6.58093c.25586-19.94409,6.86719-39.32874,19.01221-55.33972l16.23145-21.40015,43.99561-14.66504s24.77295,35.45825,26.06885,37.44604l6.70117-4.37012c-1.34375-2.06055-27.75781-39.8667-27.75781-39.8667l-6.80273-13.60571,20.62305-29.46118c21.8457-31.20996,24.28125-71.47949,6.35352-105.09375-2.74268-5.14233-5.93359-10.01318-9.50342-14.57428,18.9502-1.32922,36.84521,10.32196,42.98779,28.75104l11.10059,33.30127c.54492,1.6333,2.07324,2.73486,3.79492,2.73486s3.25-1.10156,3.79492-2.73486l24-72c.47852-1.4375,.10449-3.02197-.9668-4.09375ZM69.94043,224.25635l5.49512,21.97937-40.93115,27.28748-10.84521-43.38159c-2.10156-8.40332-.25586-17.14453,5.06152-23.98145L131.15723,74.45557c.20996-.27002,.38477-.56543,.51953-.87988l18.44824-43.04688c2.37305-5.53711,8.52832-8.46777,14.32715-6.81104l19.33105,5.52344c3.92871,1.12207,6.89355,3.99805,8.13574,7.89062,1.24219,3.8916,.49023,7.95361-2.06152,11.14404l-16.98047,21.22559c-.96094,1.2002-1.14844,2.84521-.48242,4.23145,.66602,1.38574,2.06738,2.26709,3.60547,2.26709h16c6.61719,0,12,5.3833,12,12v4h-44c-1.27441,0-2.47168,.60693-3.22559,1.63477l-83.55859,113.94336c-3.52734,4.81055-4.72168,10.88916-3.27539,16.67822Zm40.89502,55.88513l-27.16602-33.95758-1.66797-6.67108,34.38721,26.74561-5.55322,13.88306Zm45.28369-17.11169l-7.07422,28.2998-31.54492-6.30859,30.21387-75.53564c.40918-1.02246,.37793-2.16895-.08496-3.16846-.46387-.99951-1.31934-1.76318-2.36426-2.11182l-5.82324-1.94092c-3.47168-1.15723-6.2666-3.76025-7.66699-7.1416s-1.26465-7.19775,.37207-10.4707c3.11133-6.22266,10.70605-8.75391,16.92773-5.64258l1.13672,.56836c1.28418,.64209,2.81152,.54736,4.00781-.24951l15.77246-10.51465c3.80762-2.5376,8.6377-2.70361,12.61035-.43408l44.99512,25.71143-6.52539,39.14941-5.66406-3.77637c-9.10938-6.07178-21.45605-3.60107-27.52734,5.50537-5.23145,7.8457-4.18848,18.37939,2.48047,25.04688l4.74316,4.74365c-3.20312,5.28662-10.00293,7.31836-15.625,4.50732l-17.68945-8.84473c-1.08594-.54297-2.3584-.56299-3.46094-.05664-1.10156,.50732-1.91406,1.4873-2.20898,2.66406Zm106.75195,148.60449l-79.09033-18.25171,18.00854-36.01587,44.42163,22.21094c.56152,.28076,1.1748,.42236,1.78906,.42236,.47461,0,.95117-.08447,1.4043-.25488l37.65332-14.12012,16.1665,5.7738c.0249,1.25891,.08057,2.51904,.15283,3.7804l-40.50586,36.45508Zm-63.07373-66.01697l16.15771-5.38586,59.43311,21.22607-27.15967,10.18457-45.71729-22.85864-2.71387-3.16614Zm103.59326,17.34583l-86.04492-30.73022c-.84473-.30127-1.76367-.31055-2.61035-.02783l-18.43945,6.14648c-.74658,.24915-1.51196,.41528-2.28613,.51367l-32.48999-37.90527c1.37134-5.22974,6.13379-8.95996,11.59741-8.95996h20.25586c3.20508,0,6.21875,1.24854,8.48535,3.51514l19.31348,19.31348c.63574,.63574,1.46777,1.03906,2.36035,1.14404l89.17383,10.49109c-5.34277,11.46155-8.51855,23.82996-9.31543,36.49939Zm43.44238-80.12378l-6.95215-27.80957c-.29492-1.17676-1.10742-2.15674-2.20898-2.66406-.53125-.24414-1.10156-.36572-1.67188-.36572-.61328,0-1.22656,.14111-1.78906,.42236l-3.36621,1.68311c-5.40039,2.69971-12.00195,.94824-15.35156-4.07666l-5.25977-7.89014,7.98242-2.66113c3.88086-1.29297,7.00391-4.20215,8.56934-7.98096,1.56543-3.77832,1.41406-8.04395-.41504-11.70215-2.4043-4.80762-7.2373-7.79443-12.6123-7.79443h-13.75781v-12c0-2.20898-1.79102-4-4-4h-20.61133l-6.72949-40.37451,78.8877-6.57373c5.69141-.47607,10.91211,2.97412,12.71484,8.38477,1.75293,5.25781-.24316,11.07764-4.85449,14.15186l-13.62598,9.0835c-1.54688,1.03125-2.17969,2.99219-1.52637,4.73242l24,64c.35449,.9458,1.05273,1.72168,1.95605,2.17334l14.80762,7.40381,5.34082,10.68213-39.52637,13.17578Z"/><rect height="8.00019" transform="translate(-61.69794 91.80014) rotate(-18.43495)" width="25.29822" x="239.35089" y="231.9999"/><rect height="25.29822" transform="translate(-87.4067 414.72968) rotate(-71.56505)" width="8.00019" x="239.9999" y="255.35089"/><rect height="28.84441" transform="translate(-138.10213 317.95381) rotate(-56.30993)" width="7.99982" x="224.00009" y="273.57779"/><rect height="8.00006" transform="translate(-45.67236 150.5524) rotate(-26.56818)" width="17.88854" x="287.05573" y="167.99997"/><path d="M429.99707,238.11621l4.00586,6.9248c16.03516-9.27637,25.99707-26.53516,25.99707-45.04102,0-5.94336-.99609-11.7749-2.95996-17.33301l-7.54297,2.66602c1.66113,4.69922,2.50293,9.63379,2.50293,14.66699,0,15.65967-8.43066,30.26514-22.00293,38.11621Z"/><path d="M462.66699,234.86279l2.66602,7.54297c11.16504-3.94629,18.66699-14.55811,18.66699-26.40576,0-3.19824-.53613-6.33789-1.59375-9.33203l-7.54297,2.66406c.75391,2.13623,1.13672,4.37939,1.13672,6.66797,0,8.46387-5.3584,16.04443-13.33301,18.86279Z"/><path d="M48.36523,121.30811l7.92773-1.06738c-.66406-4.93848-.47949-9.94092,.5498-14.86865,3.20312-15.32861,14.44336-27.90088,29.33398-32.81055l-2.50586-7.59766c-17.59277,5.80078-30.87402,20.65723-34.6582,38.77246-1.21582,5.81836-1.43359,11.73047-.64746,17.57178Z"/><path d="M36.37207,91.56006c-.30176-2.2417-.21777-4.51562,.25-6.75732,1.73145-8.28564,8.52734-14.61035,16.90918-15.73828l-1.06641-7.92871c-11.73633,1.57959-21.25,10.43311-23.67383,22.03125-.6543,3.13379-.77051,6.31738-.34668,9.46143l7.92773-1.06836Z"/><path d="M244.95215,70.53613l7.17578,3.53711c2.20312-4.4707,5.14746-8.52051,8.74902-12.03564,11.20801-10.93701,27.55176-15.10254,42.64648-10.875l2.1582-7.70312c-17.83691-4.99902-37.14648-.07227-50.39258,12.85303-4.25293,4.15137-7.73145,8.93701-10.33691,14.22363Z"/><path d="M255.56543,33.68652c6.05664-5.9126,15.22656-7.37061,22.8125-3.63281l3.53516-7.17578c-10.62012-5.23438-23.45508-3.19092-31.93555,5.08301-2.29004,2.23535-4.16211,4.81201-5.56543,7.65967l7.17578,3.53613c1.00098-2.03076,2.33887-3.87109,3.97754-5.47021Z"/></g></g><g id="d"/></svg>